<svg width="14" height="9" viewBox="0 0 14 9" fill="none" xmlns="http://www.w3.org/2000/svg">
<path d="M13.8125 1.21875C13.875 1.3125 13.9062 1.40625 13.9062 1.5C13.9062 1.625 13.875 1.6875 13.8125 1.75L7.28125 8.3125C7.1875 8.375 7.09375 8.40625 7 8.40625C6.875 8.40625 6.8125 8.375 6.75 8.3125L0.1875 1.75C0.125 1.6875 0.09375 1.625 0.09375 1.5C0.09375 1.40625 0.125 1.3125 0.1875 1.21875L0.8125 0.59375C0.875 0.53125 0.9375 0.5 1.0625 0.5C1.15625 0.5 1.25 0.53125 1.34375 0.59375L7 6.25L12.6562 0.59375C12.7188 0.53125 12.8125 0.5 12.9375 0.5C13.0312 0.5 13.125 0.53125 13.1875 0.59375L13.8125 1.21875Z" fill="#BBCDD9"/>
</svg>
