<svg width="24" height="24" viewBox="0 0 24 24" fill="none" xmlns="http://www.w3.org/2000/svg">
<path d="M3.76172 8.2682C4.88132 7.3982 5.81012 7.9982 7.04972 9.4334C7.18892 9.5954 7.37612 9.4058 7.48292 9.3134C7.58852 9.2198 9.22412 7.7474 9.30452 7.6802C9.38372 7.6094 9.47972 7.4774 9.35372 7.3298C9.05021 6.95437 8.75296 6.57392 8.46212 6.1886C6.29252 3.3506 14.3973 1.4258 13.1529 1.3958C12.5193 1.379 9.97772 1.349 9.59732 1.391C8.05772 1.553 6.12452 2.9918 5.15132 3.6626C3.87812 4.5338 3.40292 5.045 3.32492 5.1158C2.96492 5.4302 3.26732 6.1562 2.61452 6.7286C1.92452 7.3322 1.49372 6.875 1.09412 7.2254C0.896121 7.4006 0.341721 7.8158 0.183321 7.9538C0.0237206 8.0942 -0.00507941 8.3306 0.158121 8.519C0.158121 8.519 1.67492 10.1942 1.80212 10.343C1.92812 10.4894 2.27132 10.6166 2.48252 10.4282C2.69492 10.241 3.24092 9.7646 3.33212 9.6806C3.42572 9.6014 3.27212 8.6474 3.76172 8.2682ZM10.6113 8.8886C10.4673 8.7218 10.2885 8.717 10.1349 8.8538L8.41412 10.3562C8.34769 10.4165 8.3072 10.5002 8.30116 10.5897C8.29511 10.6792 8.32399 10.7675 8.38172 10.8362L18.3345 22.163C18.5673 22.4306 18.9705 22.4582 19.2357 22.2266L20.3997 21.251C20.5278 21.1382 20.6063 20.9793 20.618 20.809C20.6296 20.6387 20.5736 20.4707 20.4621 20.3414L10.6113 8.8886ZM23.8821 4.0682C23.7933 3.4754 23.4861 3.599 23.3265 3.8498C23.1669 4.103 22.4613 5.1722 22.1709 5.657C21.8829 6.137 21.1725 7.0862 19.8501 6.149C18.4725 5.1758 18.9513 4.4966 19.1913 4.0394C19.4325 3.5798 20.1729 2.291 20.2797 2.1314C20.3865 1.9694 20.2617 1.499 19.8345 1.6958C19.4061 1.8926 16.8069 2.9258 16.4469 4.4078C16.0785 5.915 16.7553 7.2626 15.4269 8.6006L13.8153 10.2806L15.4341 12.1598L17.4189 10.2758C17.8917 9.8006 18.9021 9.3386 19.8165 9.5474C21.7761 9.9902 22.8453 9.2546 23.4897 8.0378C24.0681 6.9506 23.9721 4.661 23.8821 4.0682ZM3.28652 20.4638C3.16649 20.5847 3.09913 20.7482 3.09913 20.9186C3.09913 21.089 3.16649 21.2525 3.28652 21.3734L4.42772 22.4894C4.67732 22.7402 5.07332 22.6346 5.32292 22.3838L11.2113 16.595L9.40772 14.5382L3.28652 20.4638Z" fill="#414D55"/>
</svg>
