<svg width="24" height="24" viewBox="0 0 24 24" fill="none" xmlns="http://www.w3.org/2000/svg">
<path d="M20.001 20.5H4.00098C2.90098 20.5 2.00098 19.6 2.00098 18.5V8.05C2.00098 7.4 2.30098 6.8 2.85098 6.4L12.001 0L21.151 6.4C21.701 6.75 22.001 7.4 22.001 8.05V18.5C22.001 19.6 21.101 20.5 20.001 20.5Z" fill="#78909C"/>
<path d="M7.00098 0.5H17.001V16H7.00098V0.5Z" fill="#AED581"/>
<path d="M6.50098 0V16.5H17.501V0H6.50098ZM16.501 15.5H7.50098V1H16.501V15.5Z" fill="#558B2F"/>
<path d="M17.001 1.5C17.001 2.35 16.851 3 16.001 3C15.151 3 14.501 2.35 14.501 1.5C14.501 0.65 15.151 0.5 16.001 0.5C16.851 0.5 17.001 0.65 17.001 1.5Z" fill="#558B2F"/>
<path d="M8.00098 0.5C8.85098 0.5 9.50098 0.65 9.50098 1.5C9.50098 2.35 8.85098 3 8.00098 3C7.15098 3 7.00098 2.35 7.00098 1.5C7.00098 0.65 7.15098 0.5 8.00098 0.5Z" fill="#558B2F"/>
<path d="M12.001 5C12.5533 5 13.001 4.55228 13.001 4C13.001 3.44772 12.5533 3 12.001 3C11.4487 3 11.001 3.44772 11.001 4C11.001 4.55228 11.4487 5 12.001 5Z" fill="#558B2F"/>
<path d="M12.001 13C13.6578 13 15.001 11.6569 15.001 10C15.001 8.34315 13.6578 7 12.001 7C10.3441 7 9.00098 8.34315 9.00098 10C9.00098 11.6569 10.3441 13 12.001 13Z" fill="#558B2F"/>
<path d="M20.001 20.5H4.00098C2.90098 20.5 2.00098 19.6 2.00098 18.5V8.5L12.001 15L22.001 8.5V18.5C22.001 19.6 21.101 20.5 20.001 20.5Z" fill="#CFD8DC"/>
</svg>
