<svg width="14" height="16" viewBox="0 0 14 16" fill="none" xmlns="http://www.w3.org/2000/svg">
<path d="M8.5 11C8.625 11 8.75 11.0625 8.84375 11.1562C8.9375 11.25 9 11.375 9 11.5V12.5C9 12.6562 8.9375 12.7812 8.84375 12.875C8.75 12.9688 8.625 13 8.5 13H7.75V15.5C7.75 15.6562 7.6875 15.7812 7.59375 15.875C7.5 15.9688 7.375 16 7.25 16H6.75C6.59375 16 6.46875 15.9688 6.375 15.875C6.28125 15.7812 6.25 15.6562 6.25 15.5V13H5.5C5.34375 13 5.21875 12.9688 5.125 12.875C5.03125 12.7812 5 12.6562 5 12.5V11.5C5 11.375 5.03125 11.25 5.125 11.1562C5.21875 11.0625 5.34375 11 5.5 11H6.25V0.5C6.25 0.375 6.28125 0.25 6.375 0.15625C6.46875 0.0625 6.59375 0 6.75 0H7.25C7.375 0 7.5 0.0625 7.59375 0.15625C7.6875 0.25 7.75 0.375 7.75 0.5V11H8.5ZM3.5 3C3.625 3 3.75 3.0625 3.84375 3.15625C3.9375 3.25 4 3.375 4 3.5V4.5C4 4.65625 3.9375 4.78125 3.84375 4.875C3.75 4.96875 3.625 5 3.5 5H2.75V15.5C2.75 15.6562 2.6875 15.7812 2.59375 15.875C2.5 15.9688 2.375 16 2.25 16H1.75C1.59375 16 1.46875 15.9688 1.375 15.875C1.28125 15.7812 1.25 15.6562 1.25 15.5V5H0.5C0.34375 5 0.21875 4.96875 0.125 4.875C0.03125 4.78125 0 4.65625 0 4.5V3.5C0 3.375 0.03125 3.25 0.125 3.15625C0.21875 3.0625 0.34375 3 0.5 3H1.25V0.5C1.25 0.375 1.28125 0.25 1.375 0.15625C1.46875 0.0625 1.59375 0 1.75 0H2.25C2.375 0 2.5 0.0625 2.59375 0.15625C2.6875 0.25 2.75 0.375 2.75 0.5V3H3.5ZM13.5 7C13.625 7 13.75 7.0625 13.8438 7.15625C13.9375 7.25 14 7.375 14 7.5V8.5C14 8.65625 13.9375 8.78125 13.8438 8.875C13.75 8.96875 13.625 9 13.5 9H12.75V15.5C12.75 15.6562 12.6875 15.7812 12.5938 15.875C12.5 15.9688 12.375 16 12.25 16H11.75C11.5938 16 11.4688 15.9688 11.375 15.875C11.2812 15.7812 11.25 15.6562 11.25 15.5V9H10.5C10.3438 9 10.2188 8.96875 10.125 8.875C10.0312 8.78125 10 8.65625 10 8.5V7.5C10 7.375 10.0312 7.25 10.125 7.15625C10.2188 7.0625 10.3438 7 10.5 7H11.25V0.5C11.25 0.375 11.2812 0.25 11.375 0.15625C11.4688 0.0625 11.5938 0 11.75 0H12.25C12.375 0 12.5 0.0625 12.5938 0.15625C12.6875 0.25 12.75 0.375 12.75 0.5V7H13.5Z" fill="#636D73"/>
</svg>
