<svg width="24" height="24" viewBox="0 0 24 24" fill="none" xmlns="http://www.w3.org/2000/svg">
<path d="M12 2.25C6.615 2.25 2.25 6.615 2.25 12C2.25 17.385 6.615 21.75 12 21.75C17.385 21.75 21.75 17.385 21.75 12C21.75 6.615 17.385 2.25 12 2.25ZM12 20.25C7.45312 20.25 3.75 16.5492 3.75 12C3.74614 10.8904 3.968 9.79163 4.4021 8.77048C4.83621 7.74933 5.47348 6.82714 6.27516 6.06L13.0781 10.9219L12.1875 12.3281L6.32812 8.0625C5.71875 9.14062 5.07656 10.2188 5.07656 12C5.07656 15.8175 8.1825 18.9234 12 18.9234C15.8175 18.9234 18.9234 15.8175 18.9234 12C18.9234 8.40609 16.1709 5.44313 12.6633 5.10938V7.6875H11.3367V3.74484C11.5355 3.74812 11.7558 3.75 12 3.75C16.5492 3.75 20.25 7.45312 20.25 12C20.25 16.5469 16.5492 20.25 12 20.25Z" fill="#DB4437"/>
</svg>
