<svg width="24" height="24" viewBox="0 0 24 24" fill="none" xmlns="http://www.w3.org/2000/svg">
<path d="M12 5.5C12.9283 5.5 13.8185 5.86875 14.4749 6.52513C15.1313 7.1815 15.5 8.07174 15.5 9C15.5 9.92826 15.1313 10.8185 14.4749 11.4749C13.8185 12.1313 12.9283 12.5 12 12.5C11.0717 12.5 10.1815 12.1313 9.52513 11.4749C8.86875 10.8185 8.5 9.92826 8.5 9C8.5 8.07174 8.86875 7.1815 9.52513 6.52513C10.1815 5.86875 11.0717 5.5 12 5.5ZM5 8C5.56 8 6.08 8.15 6.53 8.42C6.38 9.85 6.8 11.27 7.66 12.38C7.16 13.34 6.16 14 5 14C4.20435 14 3.44129 13.6839 2.87868 13.1213C2.31607 12.5587 2 11.7956 2 11C2 10.2044 2.31607 9.44129 2.87868 8.87868C3.44129 8.31607 4.20435 8 5 8ZM19 8C19.7956 8 20.5587 8.31607 21.1213 8.87868C21.6839 9.44129 22 10.2044 22 11C22 11.7956 21.6839 12.5587 21.1213 13.1213C20.5587 13.6839 19.7956 14 19 14C17.84 14 16.84 13.34 16.34 12.38C17.2119 11.2544 17.6166 9.8362 17.47 8.42C17.92 8.15 18.44 8 19 8ZM5.5 18.25C5.5 16.18 8.41 14.5 12 14.5C15.59 14.5 18.5 16.18 18.5 18.25V20H5.5V18.25ZM0 20V18.5C0 17.11 1.89 15.94 4.45 15.6C3.86 16.28 3.5 17.22 3.5 18.25V20H0ZM24 20H20.5V18.25C20.5 17.22 20.14 16.28 19.55 15.6C22.11 15.94 24 17.11 24 18.5V20Z" fill="#414D55"/>
</svg>
