<svg width="21" height="24" viewBox="0 0 21 24" fill="none" xmlns="http://www.w3.org/2000/svg">
<g clip-path="url(#clip0)">
<path d="M20.1482 22.7355L19.5564 19.8777C19.4795 19.5237 19.3796 19.1949 19.2771 18.8661L19.6358 17.981C19.675 17.8864 19.6947 17.7851 19.694 17.6829C19.6933 17.5807 19.6721 17.4797 19.6316 17.3856C19.5911 17.2916 19.5321 17.2064 19.4581 17.1349C19.384 17.0635 19.2964 17.0072 19.2002 16.9694L16.7918 15.9831C16.6984 15.9448 16.5983 15.9251 16.4972 15.9251C16.3961 15.9251 16.2959 15.9448 16.2026 15.9831C16.114 16.0153 16.0342 16.0672 15.9694 16.1348C15.3362 16.0077 14.6935 15.9316 14.0478 15.9072C12.9044 16.7606 11.51 17.2224 10.0765 17.2224C8.64302 17.2224 7.24867 16.7606 6.10523 15.9072C5.45927 15.9286 4.81638 16.0047 4.18364 16.1348C4.11295 16.0757 4.03557 16.0247 3.95305 15.9831C3.76517 15.9065 3.5542 15.9065 3.36632 15.9831L0.957928 16.9694C0.861751 17.0072 0.774117 17.0635 0.700083 17.1349C0.62605 17.2064 0.567084 17.2916 0.526589 17.3856C0.486094 17.4797 0.464871 17.5807 0.464147 17.6829C0.463422 17.7851 0.48321 17.8864 0.522368 17.981L0.906686 18.8661C0.794235 19.1895 0.700144 19.5187 0.624853 19.8524L0.0355645 22.7102C-0.00621467 22.8598 -0.0141001 23.0167 0.0124684 23.1697C0.039037 23.3226 0.0994075 23.468 0.189292 23.5953C0.251333 23.7118 0.343007 23.8104 0.455307 23.8813C0.567607 23.9522 0.696671 23.9931 0.829822 24H19.354C19.4868 23.9972 19.6162 23.9579 19.7276 23.8864C19.839 23.8149 19.9279 23.7141 19.9842 23.5953C20.0769 23.4742 20.14 23.3335 20.1684 23.1844C20.1969 23.0352 20.1899 22.8816 20.1482 22.7355ZM3.67378 16.7165L4.08372 17.6269L1.67532 18.6132L1.28076 17.7028L3.67378 16.7165ZM18.5341 18.6132L16.1257 17.6522L16.51 16.7418L18.9184 17.7028L18.5341 18.6132Z" fill="#414D55"/>
<path d="M3.98065 9.93889C3.98065 13.53 6.72211 16.4636 10.1041 16.4636C13.4861 16.4636 16.2276 13.5553 16.2276 9.96418C16.2224 8.93407 15.9954 7.91683 15.5614 6.97998C14.6032 8.11802 12.5535 8.85142 10.1041 8.85142C7.65473 8.85142 5.6204 8.11802 4.6468 6.97998C4.20096 7.90388 3.97319 8.91555 3.98065 9.93889Z" fill="#414D55"/>
<path d="M10.1049 8.04199C12.8464 8.04199 15.101 7.0051 15.3316 5.69004C13.603 5.41869 11.8552 5.28338 10.1049 5.2854C8.34553 5.26973 6.58813 5.40512 4.85254 5.69004C5.10875 7.0051 7.36342 8.04199 10.1049 8.04199Z" fill="#414D55"/>
<path d="M4.57007 4.9568C6.39979 4.66443 8.25072 4.52064 10.1043 4.52687C11.9544 4.52119 13.8018 4.66498 15.6282 4.9568C16.5762 4.42571 17.1398 3.79347 17.1398 3.06006C17.1501 1.36565 13.9987 0 10.1043 0C6.20983 0 3.05842 1.36565 3.05842 3.06006C3.0328 3.76818 3.62209 4.42571 4.57007 4.9568ZM9.0794 1.9726L9.69431 1.94731C9.72073 1.94779 9.74674 1.94093 9.76939 1.92751C9.79204 1.9141 9.81042 1.89467 9.82242 1.87144L9.99152 1.28978C10.0428 1.18862 10.1965 1.18862 10.2221 1.28978L10.4271 1.87144C10.4391 1.89467 10.4575 1.9141 10.4801 1.92751C10.5028 1.94093 10.5288 1.94779 10.5552 1.94731L11.1701 1.9726C11.2726 1.9726 11.3238 2.12434 11.247 2.17492L10.7602 2.52898C10.7089 2.57956 10.6833 2.63014 10.7089 2.68072L10.8883 3.23709C10.896 3.2608 10.8964 3.28623 10.8896 3.31019C10.8827 3.33415 10.8688 3.35558 10.8497 3.37178C10.8305 3.38799 10.8069 3.39825 10.7819 3.40129C10.7569 3.40432 10.7315 3.39998 10.7089 3.38883L10.1965 3.03477C10.1874 3.02322 10.1757 3.01387 10.1624 3.00743C10.1491 3.001 10.1345 2.99766 10.1196 2.99766C10.1048 2.99766 10.0902 3.001 10.0768 3.00743C10.0635 3.01387 10.0519 3.02322 10.0428 3.03477L9.55596 3.38883C9.53405 3.40582 9.50685 3.41478 9.479 3.4142C9.45114 3.41361 9.42435 3.40351 9.4032 3.38561C9.38205 3.36771 9.36783 3.34313 9.36299 3.31605C9.35814 3.28896 9.36295 3.26106 9.37661 3.23709L9.55596 2.68072C9.58158 2.63014 9.55596 2.57956 9.50472 2.52898L9.01791 2.17492C8.90006 2.12434 8.9513 1.9726 9.0794 1.9726Z" fill="#414D55"/>
</g>
<defs>
<clipPath id="clip0">
<rect width="20.1818" height="24" fill="white"/>
</clipPath>
</defs>
</svg>
