<svg width="60" height="60" viewBox="0 0 60 60" fill="none" xmlns="http://www.w3.org/2000/svg">
<rect opacity="0.1" width="60" height="60" rx="30" fill="#34D1BF"/>
<path d="M40.1511 40.7355L39.5593 37.8777C39.4824 37.5237 39.3825 37.1949 39.28 36.8661L39.6387 35.981C39.6779 35.8864 39.6977 35.7851 39.6969 35.6829C39.6962 35.5807 39.675 35.4797 39.6345 35.3856C39.594 35.2916 39.535 35.2064 39.461 35.1349C39.387 35.0635 39.2993 35.0072 39.2032 34.9694L36.7948 33.9831C36.7014 33.9448 36.6012 33.9251 36.5001 33.9251C36.399 33.9251 36.2989 33.9448 36.2055 33.9831C36.117 34.0153 36.0372 34.0672 35.9723 34.1348C35.3391 34.0077 34.6965 33.9316 34.0507 33.9072C32.9073 34.7606 31.5129 35.2224 30.0794 35.2224C28.6459 35.2224 27.2516 34.7606 26.1082 33.9072C25.4622 33.9286 24.8193 34.0047 24.1866 34.1348C24.1159 34.0757 24.0385 34.0247 23.956 33.9831C23.7681 33.9065 23.5571 33.9065 23.3693 33.9831L20.9609 34.9694C20.8647 35.0072 20.777 35.0635 20.703 35.1349C20.629 35.2064 20.57 35.2916 20.5295 35.3856C20.489 35.4797 20.4678 35.5807 20.4671 35.6829C20.4664 35.7851 20.4861 35.8864 20.5253 35.981L20.9096 36.8661C20.7972 37.1895 20.7031 37.5187 20.6278 37.8524L20.0385 40.7102C19.9967 40.8598 19.9888 41.0167 20.0154 41.1697C20.042 41.3226 20.1023 41.468 20.1922 41.5953C20.2543 41.7118 20.3459 41.8104 20.4582 41.8813C20.5705 41.9522 20.6996 41.9931 20.8328 42H39.3569C39.4897 41.9972 39.6191 41.9579 39.7305 41.8864C39.8419 41.8149 39.9308 41.7141 39.9872 41.5953C40.0799 41.4742 40.1429 41.3335 40.1713 41.1844C40.1998 41.0352 40.1929 40.8816 40.1511 40.7355ZM23.6767 34.7165L24.0866 35.6269L21.6783 36.6132L21.2837 35.7028L23.6767 34.7165ZM38.537 36.6132L36.1286 35.6522L36.5129 34.7418L38.9213 35.7028L38.537 36.6132Z" fill="#34D1BF"/>
<path d="M23.9846 27.9389C23.9846 31.53 26.726 34.4636 30.108 34.4636C33.49 34.4636 36.2315 31.5553 36.2315 27.9642C36.2263 26.9341 35.9993 25.9168 35.5653 24.98C34.6071 26.118 32.5574 26.8514 30.108 26.8514C27.6586 26.8514 25.6243 26.118 24.6507 24.98C24.2049 25.9039 23.9771 26.9156 23.9846 27.9389Z" fill="#34D1BF"/>
<path d="M30.1078 26.042C32.8493 26.042 35.1039 25.0051 35.3345 23.69C33.6059 23.4187 31.8582 23.2834 30.1078 23.2854C28.3485 23.2697 26.5911 23.4051 24.8555 23.69C25.1117 25.0051 27.3663 26.042 30.1078 26.042Z" fill="#34D1BF"/>
<path d="M24.575 22.9568C26.4047 22.6644 28.2556 22.5206 30.1091 22.5269C31.9592 22.5212 33.8067 22.665 35.6331 22.9568C36.5811 22.4257 37.1447 21.7935 37.1447 21.0601C37.155 19.3656 34.0036 18 30.1091 18C26.2147 18 23.0633 19.3656 23.0633 21.0601C23.0377 21.7682 23.627 22.4257 24.575 22.9568ZM29.0843 19.9726L29.6992 19.9473C29.7256 19.9478 29.7516 19.9409 29.7743 19.9275C29.7969 19.9141 29.8153 19.8947 29.8273 19.8714L29.9964 19.2898C30.0476 19.1886 30.2014 19.1886 30.227 19.2898L30.432 19.8714C30.444 19.8947 30.4623 19.9141 30.485 19.9275C30.5076 19.9409 30.5337 19.9478 30.5601 19.9473L31.175 19.9726C31.2775 19.9726 31.3287 20.1243 31.2518 20.1749L30.765 20.529C30.7138 20.5796 30.6882 20.6301 30.7138 20.6807L30.8931 21.2371C30.9009 21.2608 30.9013 21.2862 30.8945 21.3102C30.8876 21.3342 30.8737 21.3556 30.8546 21.3718C30.8354 21.388 30.8118 21.3983 30.7868 21.4013C30.7617 21.4043 30.7364 21.4 30.7138 21.3888L30.2014 21.0348C30.1923 21.0232 30.1806 21.0139 30.1673 21.0074C30.154 21.001 30.1393 20.9977 30.1245 20.9977C30.1097 20.9977 30.095 21.001 30.0817 21.0074C30.0684 21.0139 30.0567 21.0232 30.0476 21.0348L29.5608 21.3888C29.5389 21.4058 29.5117 21.4148 29.4839 21.4142C29.456 21.4136 29.4292 21.4035 29.4081 21.3856C29.3869 21.3677 29.3727 21.3431 29.3679 21.316C29.363 21.289 29.3678 21.2611 29.3815 21.2371L29.5608 20.6807C29.5865 20.6301 29.5608 20.5796 29.5096 20.529L29.0228 20.1749C28.9049 20.1243 28.9562 19.9726 29.0843 19.9726Z" fill="#34D1BF"/>
</svg>
