<svg width="24" height="24" viewBox="0 0 24 24" fill="none" xmlns="http://www.w3.org/2000/svg">
<path d="M22.501 24H1.50098C1.0791 24 0.723633 23.8555 0.43457 23.5664C0.145508 23.2773 0.000976562 22.9219 0.000976562 22.5V7.5C0.000976562 7.09375 0.145508 6.74219 0.43457 6.44531C0.723633 6.14844 1.0791 6 1.50098 6H9.00098V7.5C9.00098 8.51562 9.27832 9.26953 9.83301 9.76172C10.3877 10.2539 11.1104 10.5 12.001 10.5C12.876 10.5 13.5947 10.2422 14.1572 9.72656C14.7197 9.21094 15.001 8.46875 15.001 7.5V6H22.501C22.9072 6 23.2588 6.14844 23.5557 6.44531C23.8525 6.74219 24.001 7.09375 24.001 7.5V22.5C24.001 22.9219 23.8564 23.2773 23.5674 23.5664C23.2783 23.8555 22.9229 24 22.501 24ZM8.25098 18.8906V18.4688C9.75098 17.8594 10.501 16.2031 10.501 13.5C10.501 12.5156 10.1533 11.7695 9.45801 11.2617C8.7627 10.7539 7.86426 10.5 6.7627 10.5C5.66113 10.5 4.75879 10.7539 4.05566 11.2617C3.35254 11.7695 3.00098 12.5156 3.00098 13.5C3.00098 16.125 3.75098 17.7656 5.25098 18.4219V18.8906C4.17285 19.0781 3.28223 19.4297 2.5791 19.9453C1.87598 20.4609 1.5166 21.0469 1.50098 21.7031C1.50098 21.8906 1.66895 22.043 2.00488 22.1602C2.34082 22.2773 2.83301 22.3594 3.48145 22.4062C4.12988 22.4531 4.66504 22.4805 5.08691 22.4883C5.50879 22.4961 6.06348 22.5 6.75098 22.5C7.43848 22.5 7.99316 22.4961 8.41504 22.4883C8.83691 22.4805 9.37207 22.4531 10.0205 22.4062C10.6689 22.3594 11.1611 22.2773 11.4971 22.1602C11.833 22.043 12.001 21.8906 12.001 21.7031C11.9854 21.0469 11.6299 20.4609 10.9346 19.9453C10.2393 19.4297 9.34473 19.0781 8.25098 18.8906ZM20.251 13.5H14.251C14.0479 13.5 13.8721 13.5742 13.7236 13.7227C13.5752 13.8711 13.501 14.0469 13.501 14.25C13.501 14.4531 13.5752 14.6289 13.7236 14.7773C13.8721 14.9258 14.0479 15 14.251 15H20.251C20.4541 15 20.6299 14.9258 20.7783 14.7773C20.9268 14.6289 21.001 14.4531 21.001 14.25C21.001 14.0469 20.9268 13.8711 20.7783 13.7227C20.6299 13.5742 20.4541 13.5 20.251 13.5ZM13.501 17.25C13.501 17.4531 13.5752 17.6289 13.7236 17.7773C13.8721 17.9258 14.0479 18 14.251 18H17.251C17.4541 18 17.6299 17.9258 17.7783 17.7773C17.9268 17.6289 18.001 17.4531 18.001 17.25C18.001 17.0469 17.9268 16.8711 17.7783 16.7227C17.6299 16.5742 17.4541 16.5 17.251 16.5H14.251C14.0479 16.5 13.8721 16.5742 13.7236 16.7227C13.5752 16.8711 13.501 17.0469 13.501 17.25ZM20.251 19.5H14.251C14.0479 19.5 13.8721 19.5742 13.7236 19.7227C13.5752 19.8711 13.501 20.0469 13.501 20.25C13.501 20.4531 13.5752 20.6289 13.7236 20.7773C13.8721 20.9258 14.0479 21 14.251 21H20.251C20.4541 21 20.6299 20.9258 20.7783 20.7773C20.9268 20.6289 21.001 20.4531 21.001 20.25C21.001 20.0469 20.9268 19.8711 20.7783 19.7227C20.6299 19.5742 20.4541 19.5 20.251 19.5ZM13.501 3V7.5C13.501 7.92188 13.3525 8.27734 13.0557 8.56641C12.7588 8.85547 12.4033 9 11.9893 9C11.5752 9 11.2236 8.85547 10.9346 8.56641C10.6455 8.27734 10.501 7.92188 10.501 7.5V3C10.0791 3 9.72363 2.85547 9.43457 2.56641C9.14551 2.27734 9.00098 1.92578 9.00098 1.51172C9.00098 1.09766 9.14551 0.742188 9.43457 0.445312C9.72363 0.148438 10.0791 0 10.501 0H13.501C13.9072 0 14.2588 0.148438 14.5557 0.445312C14.8525 0.742188 15.001 1.09766 15.001 1.51172C15.001 1.92578 14.8564 2.27734 14.5674 2.56641C14.2783 2.85547 13.9229 3 13.501 3Z" fill="#7ED321"/>
</svg>
