<svg width="27" height="24" viewBox="0 0 27 24" fill="none" xmlns="http://www.w3.org/2000/svg">
<path d="M4.19176 7.7865C5.45547 6.80452 6.50382 7.48174 7.90297 9.10167C8.06009 9.28452 8.27138 9.07052 8.39193 8.96623C8.51112 8.86058 10.3572 7.19866 10.448 7.12281C10.5374 7.0429 10.6457 6.89391 10.5035 6.72731C10.1609 6.30357 9.82544 5.87415 9.49716 5.43923C7.04831 2.23594 16.1963 0.0633974 14.7917 0.0295361C14.0766 0.0105737 11.2078 -0.0232876 10.7785 0.0241183C9.04071 0.20697 6.85869 1.83096 5.76022 2.5881C4.32315 3.57143 3.78678 4.14843 3.69874 4.22834C3.29241 4.58321 3.63373 5.40266 2.8969 6.04873C2.11809 6.73002 1.63184 6.21398 1.18081 6.60948C0.957326 6.80723 0.331568 7.27587 0.15278 7.43163C-0.0273626 7.5901 -0.0598695 7.85693 0.124336 8.06958C0.124336 8.06958 1.83637 9.9604 1.97994 10.1283C2.12216 10.2936 2.50953 10.4372 2.74792 10.2245C2.98765 10.0132 3.60393 9.4755 3.70687 9.38069C3.81252 9.2913 3.63915 8.2145 4.19176 7.7865ZM11.923 8.48675C11.7605 8.29848 11.5586 8.29306 11.3853 8.44747L9.44298 10.1432C9.368 10.2113 9.3223 10.3057 9.31548 10.4068C9.30866 10.5078 9.34125 10.6075 9.40641 10.685L20.6403 23.4697C20.903 23.7718 21.3581 23.8029 21.6575 23.5415L22.9713 22.4403C23.1159 22.313 23.2044 22.1337 23.2176 21.9415C23.2308 21.7492 23.1676 21.5596 23.0417 21.4137L11.923 8.48675ZM26.9019 3.04591C26.8017 2.37681 26.4549 2.51631 26.2748 2.7994C26.0947 3.08519 25.2982 4.292 24.9705 4.8392C24.6454 5.38099 23.8435 6.45236 22.3509 5.39453C20.796 4.29607 21.3365 3.52945 21.6073 3.0134C21.8796 2.49464 22.7153 1.03996 22.8358 0.859817C22.9564 0.676965 22.8155 0.146019 22.3333 0.36815C21.8498 0.59028 18.916 1.75647 18.5097 3.42922C18.0939 5.13041 18.8578 6.65146 17.3584 8.16168L15.5394 10.0579L17.3665 12.179L19.6068 10.0525C20.1405 9.51614 21.2809 8.99467 22.313 9.23035C24.5248 9.73014 25.7317 8.89986 26.459 7.52644C27.1118 6.29931 27.0035 3.71501 26.9019 3.04591ZM3.6554 21.5518C3.51992 21.6883 3.44389 21.8728 3.44389 22.0652C3.44389 22.2575 3.51992 22.442 3.6554 22.5785L4.94349 23.8381C5.22521 24.1212 5.67218 24.002 5.95391 23.7189L12.6002 17.1851L10.5645 14.8635L3.6554 21.5518Z" fill="#0496FF"/>
</svg>
