<svg width="30" height="22" viewBox="0 0 30 22" fill="none" xmlns="http://www.w3.org/2000/svg">
<path d="M4.50098 9.5C6.15566 9.5 7.50098 8.15469 7.50098 6.5C7.50098 4.84531 6.15566 3.5 4.50098 3.5C2.84629 3.5 1.50098 4.84531 1.50098 6.5C1.50098 8.15469 2.84629 9.5 4.50098 9.5ZM25.501 9.5C27.1557 9.5 28.501 8.15469 28.501 6.5C28.501 4.84531 27.1557 3.5 25.501 3.5C23.8463 3.5 22.501 4.84531 22.501 6.5C22.501 8.15469 23.8463 9.5 25.501 9.5ZM27.001 11H24.001C23.176 11 22.4307 11.3328 21.8869 11.8719C23.776 12.9078 25.1166 14.7781 25.4072 17H28.501C29.3307 17 30.001 16.3297 30.001 15.5V14C30.001 12.3453 28.6557 11 27.001 11ZM15.001 11C17.9025 11 20.251 8.65156 20.251 5.75C20.251 2.84844 17.9025 0.5 15.001 0.5C12.0994 0.5 9.75098 2.84844 9.75098 5.75C9.75098 8.65156 12.0994 11 15.001 11ZM18.601 12.5H18.2119C17.2369 12.9688 16.1541 13.25 15.001 13.25C13.8479 13.25 12.7697 12.9688 11.79 12.5H11.401C8.41973 12.5 6.00098 14.9188 6.00098 17.9V19.25C6.00098 20.4922 7.00879 21.5 8.25098 21.5H21.751C22.9932 21.5 24.001 20.4922 24.001 19.25V17.9C24.001 14.9188 21.5822 12.5 18.601 12.5ZM8.11504 11.8719C7.57129 11.3328 6.82598 11 6.00098 11H3.00098C1.34629 11 0.000976562 12.3453 0.000976562 14V15.5C0.000976562 16.3297 0.671289 17 1.50098 17H4.59004C4.88535 14.7781 6.22598 12.9078 8.11504 11.8719Z" fill="#49A347"/>
</svg>
