<svg width="24" height="24" viewBox="0 0 24 24" fill="none" xmlns="http://www.w3.org/2000/svg">
<path d="M22.5 24H1.5C1.07812 24 0.722656 23.8555 0.433594 23.5664C0.144531 23.2773 0 22.9219 0 22.5V7.5C0 7.09375 0.144531 6.74219 0.433594 6.44531C0.722656 6.14844 1.07812 6 1.5 6H9V7.5C9 8.51562 9.27734 9.26953 9.83203 9.76172C10.3867 10.2539 11.1094 10.5 12 10.5C12.875 10.5 13.5938 10.2422 14.1562 9.72656C14.7188 9.21094 15 8.46875 15 7.5V6H22.5C22.9062 6 23.2578 6.14844 23.5547 6.44531C23.8516 6.74219 24 7.09375 24 7.5V22.5C24 22.9219 23.8555 23.2773 23.5664 23.5664C23.2773 23.8555 22.9219 24 22.5 24ZM8.25 18.8906V18.4688C9.75 17.8594 10.5 16.2031 10.5 13.5C10.5 12.5156 10.1523 11.7695 9.45703 11.2617C8.76172 10.7539 7.86328 10.5 6.76172 10.5C5.66016 10.5 4.75781 10.7539 4.05469 11.2617C3.35156 11.7695 3 12.5156 3 13.5C3 16.125 3.75 17.7656 5.25 18.4219V18.8906C4.17188 19.0781 3.28125 19.4297 2.57812 19.9453C1.875 20.4609 1.51562 21.0469 1.5 21.7031C1.5 21.8906 1.66797 22.043 2.00391 22.1602C2.33984 22.2773 2.83203 22.3594 3.48047 22.4062C4.12891 22.4531 4.66406 22.4805 5.08594 22.4883C5.50781 22.4961 6.0625 22.5 6.75 22.5C7.4375 22.5 7.99219 22.4961 8.41406 22.4883C8.83594 22.4805 9.37109 22.4531 10.0195 22.4062C10.668 22.3594 11.1602 22.2773 11.4961 22.1602C11.832 22.043 12 21.8906 12 21.7031C11.9844 21.0469 11.6289 20.4609 10.9336 19.9453C10.2383 19.4297 9.34375 19.0781 8.25 18.8906ZM20.25 13.5H14.25C14.0469 13.5 13.8711 13.5742 13.7227 13.7227C13.5742 13.8711 13.5 14.0469 13.5 14.25C13.5 14.4531 13.5742 14.6289 13.7227 14.7773C13.8711 14.9258 14.0469 15 14.25 15H20.25C20.4531 15 20.6289 14.9258 20.7773 14.7773C20.9258 14.6289 21 14.4531 21 14.25C21 14.0469 20.9258 13.8711 20.7773 13.7227C20.6289 13.5742 20.4531 13.5 20.25 13.5ZM13.5 17.25C13.5 17.4531 13.5742 17.6289 13.7227 17.7773C13.8711 17.9258 14.0469 18 14.25 18H17.25C17.4531 18 17.6289 17.9258 17.7773 17.7773C17.9258 17.6289 18 17.4531 18 17.25C18 17.0469 17.9258 16.8711 17.7773 16.7227C17.6289 16.5742 17.4531 16.5 17.25 16.5H14.25C14.0469 16.5 13.8711 16.5742 13.7227 16.7227C13.5742 16.8711 13.5 17.0469 13.5 17.25ZM20.25 19.5H14.25C14.0469 19.5 13.8711 19.5742 13.7227 19.7227C13.5742 19.8711 13.5 20.0469 13.5 20.25C13.5 20.4531 13.5742 20.6289 13.7227 20.7773C13.8711 20.9258 14.0469 21 14.25 21H20.25C20.4531 21 20.6289 20.9258 20.7773 20.7773C20.9258 20.6289 21 20.4531 21 20.25C21 20.0469 20.9258 19.8711 20.7773 19.7227C20.6289 19.5742 20.4531 19.5 20.25 19.5ZM13.5 3V7.5C13.5 7.92188 13.3516 8.27734 13.0547 8.56641C12.7578 8.85547 12.4023 9 11.9883 9C11.5742 9 11.2227 8.85547 10.9336 8.56641C10.6445 8.27734 10.5 7.92188 10.5 7.5V3C10.0781 3 9.72266 2.85547 9.43359 2.56641C9.14453 2.27734 9 1.92578 9 1.51172C9 1.09766 9.14453 0.742188 9.43359 0.445312C9.72266 0.148438 10.0781 0 10.5 0H13.5C13.9062 0 14.2578 0.148438 14.5547 0.445312C14.8516 0.742188 15 1.09766 15 1.51172C15 1.92578 14.8555 2.27734 14.5664 2.56641C14.2773 2.85547 13.9219 3 13.5 3Z" fill="#414D55"/>
</svg>
